HIERARCHY
ROOT Hips
{
  OFFSET 3.13124 94.3669 -3.18751
  CHANNELS  6 Xposition Yposition Zposition Zrotation Xrotation Yrotation
  JOINT LeftUpLeg
  {
    OFFSET 8.64259 1.95398 -2.38835
    CHANNELS 3 Zrotation Xrotation Yrotation
    JOINT LeftLeg
    {
      OFFSET 43.7702 0 0
      CHANNELS 3 Zrotation Xrotation Yrotation
      JOINT LeftFoot
      {
        OFFSET 40.6238 0 0
        CHANNELS 3 Zrotation Xrotation Yrotation
        JOINT LeftToeBase
        {
          OFFSET 12.7242 0 0
          CHANNELS 3 Zrotation Xrotation Yrotation
          End Site
          {
            OFFSET 0 0 0
          }
        }
      }
    }
  }
  JOINT RightUpLeg
  {
    OFFSET -8.2249 1.95398 -2.59336
    CHANNELS 3 Zrotation Xrotation Yrotation
    JOINT RightLeg
    {
      OFFSET 43.5653 0 0
      CHANNELS 3 Zrotation Xrotation Yrotation
      JOINT RightFoot
      {
        OFFSET 40.6238 0 0
        CHANNELS 3 Zrotation Xrotation Yrotation
        JOINT RightToeBase
        {
          OFFSET 12.7242 0 0
          CHANNELS 3 Zrotation Xrotation Yrotation
          End Site
          {
            OFFSET 0 0 0
          }
        }
      }
    }
  }
  JOINT Spine
  {
    OFFSET 0.165834 0.87714 6.61349
    CHANNELS 3 Zrotation Xrotation Yrotation
    JOINT Spine1
    {
      OFFSET 7.38962 1.71661e-005 0
      CHANNELS 3 Zrotation Xrotation Yrotation
      JOINT Spine2
      {
        OFFSET 11.9445 1.14441e-005 0
        CHANNELS 3 Zrotation Xrotation Yrotation
        JOINT Spine3
        {
          OFFSET 14.7254 4.19617e-005 0
          CHANNELS 3 Zrotation Xrotation Yrotation
          JOINT Spine4
          {
            OFFSET 10.9679 0 0
            CHANNELS 3 Zrotation Xrotation Yrotation
            JOINT RightShoulder
            {
              OFFSET 2.46616 -1.6653 3.69651
              CHANNELS 3 Zrotation Xrotation Yrotation
              JOINT RightArm
              {
                OFFSET 13.0012 0 0
                CHANNELS 3 Zrotation Xrotation Yrotation
                JOINT RightForeArm
                {
                  OFFSET 28.7848 1.52588e-005 0
                  CHANNELS 3 Zrotation Xrotation Yrotation
                  JOINT RightHand
                  {
                    OFFSET 26.5688 1.52588e-005 0
                    CHANNELS 3 Zrotation Xrotation Yrotation
                    End Site
                    {
                      OFFSET 0 0 0
                    }
                  }
                }
              }
            }
            JOINT LeftShoulder
            {
              OFFSET 2.38034 -1.29275 -3.75231
              CHANNELS 3 Zrotation Xrotation Yrotation
              JOINT LeftArm
              {
                OFFSET 16.3182 6.10352e-005 0
                CHANNELS 3 Zrotation Xrotation Yrotation
                JOINT LeftForeArm
                {
                  OFFSET 27.0901 0 0
                  CHANNELS 3 Zrotation Xrotation Yrotation
                  JOINT LeftHand
                  {
                    OFFSET 24.5451 1.52588e-005 0
                    CHANNELS 3 Zrotation Xrotation Yrotation
                    End Site
                    {
                      OFFSET 0 0 0
                    }
                  }
                }
              }
            }
            JOINT Neck
            {
              OFFSET 5.0226 -0.0266342 0
              CHANNELS 3 Zrotation Xrotation Yrotation
              JOINT Head
              {
                OFFSET 6.69363 2.86102e-005 0
                CHANNELS 3 Zrotation Xrotation Yrotation
                End Site
                {
                  OFFSET 0 0 0
                }
              }
            }
          }
        }
      }
    }
  }
}
MOTION
Frames:	12
Frame Time:	0.0333333
-1.611 95.0334 -7.23087 90.0323 83.5983 89.8996 -165.146 5.6756 94.4878 -13.4869 15.4262 -3.30432 65.7242 1.8224 0.461335 28.7808 7.10096e-006 -1.79611e-006 160.565 6.45942 86.5543 -14.8043 -18.9945 1.54061 65.9818 -1.73636 0.579489 28.7808 1.85176e-005 1.94149e-005 -0.00582093 6.34018 -89.9274 14.1934 1.02526e-005 -1.89924e-006 2.52252 6.94527e-006 7.72261e-006 -20.0126 2.75522e-006 6.24847e-006 -1.66359e-006 -8.63019e-006 -1.00995e-005 102.151 -18.19 -82.1709 -2.39231 5.33364 -5.66148 -4.50556 -7.7741 -30.3068 0.700001 0.0368122 3.69958 -77.7747 -21.0706 97.0457 -1.36914 -35.1609 -11.0496 -0.485225 11.1693 -26.5555 -5.3457 26.7198 6.80891 1.75362 -0.000197147 -0.000613257 -7.40349 -0.0111853 0.000422259 
-1.6114 95.0364 -7.2259 90.0706 83.6112 89.8615 -165.155 5.68022 94.482 -13.4869 15.4262 -3.30432 65.6812 1.8224 0.461335 28.7808 7.10096e-006 -1.79611e-006 160.576 6.46439 86.5637 -14.8254 -18.9947 1.52418 65.9191 -1.73636 0.579489 28.7808 1.85176e-005 1.94149e-005 -0.00582093 6.34018 -89.9274 14.1934 1.02526e-005 -1.89924e-006 2.52252 6.94527e-006 7.72261e-006 -20.0126 2.75522e-006 6.24847e-006 -1.66359e-006 -8.63019e-006 -1.00995e-005 102.147 -18.1932 -82.1499 -2.14354 5.72232 -5.615 -4.57556 -8.22355 -30.426 0.714639 0.0350353 3.5497 -77.7935 -21.0674 97.0243 -1.87063 -36.0626 -11.3023 -0.450598 11.5221 -26.5257 -5.70315 27.4385 7.12601 1.74096 -0.0275813 -0.0798816 -7.4036 -0.0111853 0.0488113 
-1.61101 95.036 -7.22469 90.1863 83.6261 89.7466 -165.143 5.674 94.4899 -13.4868 15.4262 -3.30432 65.6859 1.8224 0.461335 28.7808 7.10096e-006 -1.79611e-006 160.559 6.45807 86.5518 -14.8264 -18.994 1.53825 65.9236 -1.73636 0.579489 28.7808 1.85176e-005 1.94149e-005 -0.00582093 6.34018 -89.9274 14.1934 1.02526e-005 -1.89924e-006 2.52252 6.94527e-006 7.72261e-006 -20.0126 2.75522e-006 6.24847e-006 -1.66359e-006 -8.63019e-006 -1.00995e-005 102.118 -18.2107 -82.1303 -1.87355 5.78812 -5.64886 -4.8408 -8.60491 -30.3137 1.00391 0.0549591 3.65217 -77.8353 -21.05 97.0043 -2.07758 -36.2419 -11.3523 -0.623625 11.4919 -26.4419 -5.7655 27.9888 7.25114 1.72839 -0.0508712 -0.136185 -7.41365 -0.0111853 0.0604811 
-1.61253 95.0373 -7.22208 90.2559 83.6399 89.6775 -165.149 5.67325 94.4911 -13.4829 15.4355 -3.30458 65.6811 1.8224 0.461335 28.7808 7.10096e-006 -1.79611e-006 160.565 6.45703 86.5498 -14.831 -18.9787 1.52614 65.9211 -1.73332 0.579949 28.7808 1.85176e-005 1.94149e-005 -0.00582572 6.34018 -89.9273 14.1934 1.03718e-005 -1.79138e-006 2.52252 6.94249e-006 7.71881e-006 -20.0126 2.75409e-006 6.27478e-006 -1.65939e-006 -8.59792e-006 -1.00613e-005 102.103 -18.2159 -82.1087 -1.50977 6.29459 -5.63077 -5.01337 -9.27705 -30.4196 1.38962 0.0813387 3.69494 -77.8651 -21.0448 96.9824 -2.22108 -36.2471 -11.3761 -0.729673 11.4777 -26.26 -5.97396 28.0315 7.20911 1.6822 -0.0820844 -0.213479 -7.38407 -0.0111853 0.108174 
-1.61647 95.0351 -7.21881 90.1936 83.6394 89.7392 -165.138 5.68814 94.4951 -13.4912 15.4559 -3.31872 65.6909 1.8224 0.461335 28.7808 7.10096e-006 -1.79611e-006 160.559 6.45651 86.5488 -14.8289 -18.9653 1.53389 65.9632 -1.68201 0.608951 28.7808 1.85176e-005 1.94149e-005 -0.00596623 6.34031 -89.9264 14.1932 -0.00016556 -0.000158381 2.52226 -0.000199902 -0.000167922 -20.0129 -0.000130815 -0.000205943 -0.000246754 -0.00013339 -0.000220795 102.092 -18.2434 -82.1071 -1.40116 6.01606 -5.52885 -5.0033 -9.17522 -30.4013 1.42577 0.084701 3.7303 -77.8745 -21.0175 96.9805 -2.6689 -36.8168 -11.5648 -0.909633 11.5163 -26.0559 -6.21609 29.013 7.4481 1.67609 -0.0889114 -0.24703 -7.41292 -0.0111169 0.102234 
-1.62029 95.0378 -7.21405 90.2962 83.6392 89.6308 -165.136 5.66974 94.4938 -13.4721 15.4621 -3.32531 65.6671 1.82234 0.461335 28.7808 7.10096e-006 -1.79611e-006 160.559 6.45204 86.5405 -14.8273 -18.9969 1.53614 65.9197 -1.74718 0.5733 28.7808 1.85176e-005 1.94149e-005 -0.0132001 6.35337 -89.9366 14.167 -0.0188212 -0.0152905 2.49609 -0.0194964 -0.0144564 -20.0391 -0.0133713 -0.0202365 -0.0264118 -0.0133693 -0.0202427 102.152 -18.1892 -82.1719 -0.869099 6.99279 -5.63169 -5.44724 -10.3728 -30.5021 1.56841 0.0908132 3.81035 -77.7731 -21.0714 97.0467 -3.02549 -37.1703 -11.6883 -1.01784 11.6068 -25.8115 -6.60672 29.5675 7.68391 1.73503 -0.0221708 -0.149035 -7.36936 -0.00124995 0.0854667 
-1.6247 95.0387 -7.20897 90.293 83.6391 89.6296 -165.126 5.66204 94.4947 -13.4484 15.4533 -3.3433 65.653 1.81769 0.461334 28.7808 7.10096e-006 -1.79611e-006 160.565 6.45551 86.5454 -14.828 -18.9856 1.51259 65.9172 -1.71748 0.589738 28.7808 1.85176e-005 1.94149e-005 -0.0138228 6.35527 -89.9393 14.1632 -0.0208053 -0.0157506 2.49227 -0.0214979 -0.0148315 -20.0429 -0.0151008 -0.021279 -0.0302328 -0.0151289 -0.0213121 102.148 -18.1921 -82.1686 -0.200259 8.60563 -5.69863 -5.70626 -11.649 -30.8859 1.70713 0.10283 4.25824 -77.7792 -21.0685 97.0433 -3.38882 -37.6494 -11.7907 -1.14153 11.7368 -25.5687 -6.66832 29.9912 7.90704 1.73774 -0.0190919 -0.19043 -7.37093 0.00930553 0.1165 
-1.63168 95.037 -7.20301 90.4147 83.6389 89.4984 -165.123 5.65293 94.4872 -13.4505 15.4648 -3.35067 65.6476 1.82709 0.461336 28.7808 7.10096e-006 -1.79611e-006 160.559 6.46247 86.5348 -14.8567 -18.9798 1.49948 65.9469 -1.70918 0.595016 28.7808 1.85176e-005 1.94149e-005 -0.0175717 6.36108 -89.9405 14.1517 -0.0293186 -0.0180987 2.48069 -0.030188 -0.0159222 -20.0545 -0.0215055 -0.0279725 -0.0418058 -0.0215039 -0.0280258 102.149 -18.1921 -82.1684 -0.302044 7.64874 -5.57593 -5.7246 -11.3188 -30.962 1.44128 0.0832905 4.27459 -77.7794 -21.0685 97.0432 -3.45421 -37.4367 -11.6564 -1.26117 11.5371 -25.359 -6.56538 30.0597 7.79655 1.78642 -0.000956514 -0.152696 -7.37846 0.0197533 0.101355 
-1.63888 95.0376 -7.19896 90.5039 83.6385 89.4036 -165.117 5.64019 94.4853 -13.4364 15.4779 -3.36221 65.6383 1.82566 0.461336 28.7808 7.10096e-006 -1.79611e-006 160.562 6.45442 86.5251 -14.8509 -18.9685 1.49379 65.955 -1.68371 0.608672 28.7808 1.85176e-005 1.94149e-005 -0.0201322 6.36591 -89.9438 14.1456 -0.0357912 -0.0210792 2.47467 -0.036796 -0.0170711 -20.0605 -0.0214983 -0.0324125 -0.0478271 -0.0214969 -0.0324525 102.149 -18.192 -82.1683 0.333743 9.06049 -5.6856 -6.15557 -12.6314 -31.1527 1.73173 0.10737 4.7455 -77.7796 -21.0686 97.0431 -3.70546 -37.6389 -11.6386 -1.42141 11.4905 -25.1817 -6.70116 30.3795 7.79621 1.79706 0.00108076 -0.153213 -7.40043 0.0207854 0.127565 
-1.64478 95.0371 -7.1957 90.5581 83.6376 89.348 -165.114 5.64373 94.4836 -13.4503 15.4869 -3.36621 65.6401 1.82698 0.461336 28.7808 7.10096e-006 -1.79611e-006 160.557 6.46338 86.5124 -14.8662 -18.9907 1.50661 65.9476 -1.71698 0.590974 28.7808 1.85176e-005 1.94149e-005 -0.0222189 6.36823 -89.9436 14.137 -0.0396842 -0.0230484 2.46604 -0.0406785 -0.0182563 -20.0691 -0.0214528 -0.0323256 -0.0564737 -0.0214531 -0.0323648 102.15 -18.192 -82.1681 0.674012 9.54913 -5.69728 -6.49353 -13.3411 -31.1565 1.71861 0.0971094 4.40381 -77.7797 -21.0687 97.0431 -3.98226 -37.9588 -11.6677 -1.53594 11.5634 -25.0159 -6.73504 30.6345 7.77108 1.82819 -0.0121612 -0.228288 -7.41575 0.0199559 0.14582 
-1.64849 95.0427 -7.19558 90.6409 83.6303 89.2658 -165.108 5.61208 94.4897 -13.4048 15.4774 -3.37043 65.6305 1.82963 0.461337 28.7808 7.10096e-006 -1.79611e-006 160.565 6.48291 86.5264 -14.9066 -19.063 1.49279 65.7495 -1.93199 0.470118 28.7808 1.85176e-005 1.94149e-005 -0.0197669 6.36827 -89.9522 14.1338 -0.0359965 -0.0240785 2.4629 -0.0369676 -0.0194559 -20.0723 -0.0213331 -0.0320949 -0.0596068 -0.0213378 -0.0321318 102.152 -18.1919 -82.168 0.845198 9.61113 -5.6802 -6.62983 -13.4699 -31.0799 1.99421 0.116475 4.33004 -77.7797 -21.0688 97.043 -4.41655 -38.5739 -11.8599 -1.6444 11.7287 -24.8826 -7.05522 31.2161 7.98802 1.77984 -0.0318942 -0.295975 -7.36725 0.011523 0.135128 
-1.65052 95.0435 -7.19584 90.7626 83.6194 89.1451 -165.093 5.5949 94.4958 -13.3967 15.4671 -3.3817 65.6248 1.83219 0.461337 28.7808 7.10096e-006 -1.79611e-006 160.55 6.48222 86.5133 -14.9142 -19.1163 1.50985 65.7003 -2.01524 0.425241 28.7808 1.85176e-005 1.94149e-005 -0.0174989 6.36819 -89.9547 14.1284 -0.0318803 -0.0250296 2.45745 -0.0329167 -0.0206482 -20.0777 -0.021103 -0.0317353 -0.0650512 -0.0211163 -0.0317687 102.153 -18.1919 -82.1679 1.03365 9.84616 -5.67207 -6.65203 -13.7124 -31.1266 1.85015 0.108319 4.59769 -77.7798 -21.0689 97.043 -4.46721 -38.4412 -11.8032 -1.67845 11.6998 -24.8033 -6.99164 31.1696 8.00455 1.76873 -0.0682761 -0.346978 -7.38866 -0.0169542 0.189654 
